<?xml version="1.0" encoding="UTF-8"?>
<svg xmlns="http://www.w3.org/2000/svg" xmlns:xlink="http://www.w3.org/1999/xlink" preserveAspectRatio="xMaxYMax" viewBox="0 0 513 513" version="1.1">
  <circle class="Oval" fill="#E9EFF5" cx="256.5" cy="256.5" r="256.5"></circle>
  <g transform="translate(46.000000, 21.000000)" class="favicon">
    <path d="M335.998713,196.490079 L337.233515,196.570448 L337.819849,197.540509 C348.435507,215.261345 355.990743,235.025803 359.755134,256.10346 L399.856531,288.908179 L400.000475,289.030943 L400.13926,289.159513 L417.957806,306.359399 C419.951941,308.284298 419.808166,311.521259 417.651225,313.261781 C411.794382,317.987899 404.315478,321.546681 395.246109,323.978327 L394.291163,324.228274 L393.627455,324.390229 L392.850394,324.569993 L391.643612,324.836274 L389.483317,325.289608 L386.926019,325.803091 L384.510452,326.27325 L381.29293,326.883721 L377.752165,327.539847 L373.247464,328.356207 L369.095654,329.093706 L363.949357,329.990994 L359.308714,330.785853 L354.483676,331.599087 L349.500277,332.42558 L344.384551,333.260218 L339.162531,334.097885 L334.748433,334.794565 L330.293664,335.486836 C287.146801,342.138085 241.495855,347.812567 196.720033,351.646981 C194.18405,351.864153 191.952177,349.984384 191.735006,347.4484 C191.517835,344.912417 193.397604,342.680544 195.933587,342.463373 C205.857643,341.613518 215.8261,340.672673 225.80149,339.650363 C245.525761,236.087116 268.439686,192.538733 335.998713,196.490079 Z M351.793414,261.499312 C322.886416,262.955162 295.952834,274.452923 275.56204,295.842112 L273.455336,297.79178 L271.333489,299.769938 C270.978586,300.102005 270.623052,300.435259 270.266887,300.769701 L268.122326,302.790592 L265.962622,304.839973 C265.601409,305.183911 265.239566,305.529035 264.877091,305.875347 L262.694673,307.967462 L260.497111,310.088065 C260.129589,310.443873 259.761436,310.800869 259.392652,311.159051 L257.172377,313.322388 L254.936958,315.514215 L252.686397,317.734531 C252.310041,318.106958 251.933055,318.480572 251.555437,318.855373 L249.282162,321.118423 L246.993743,323.409962 L244.690182,325.72999 C244.304993,326.119035 243.919173,326.509268 243.532722,326.900687 L241.206446,329.263449 C240.817472,329.659617 240.427866,330.056972 240.03763,330.455514 L237.68864,332.86101 L235.324507,335.294995 L232.945231,337.757469 L231.717767,339.03462 C264.558903,335.564588 297.394915,331.232206 328.889383,326.377217 L333.300019,325.691796 L339.404971,324.725377 L343.694937,324.034298 L350.393978,322.935576 L355.252585,322.123602 L362.211042,320.937511 L368.695024,319.805281 L373.353105,318.973143 L377.628422,318.192486 L381.479092,317.471576 L384.409932,316.907474 L386.571441,316.479317 L388.105823,316.166404 L389.137833,315.950006 L390.34921,315.687095 L391.365266,315.454877 L391.861932,315.333448 L395.366932,297.363448 L393.874902,295.922571 L351.793414,261.499312 Z M287.815748,223.869753 C275.938247,223.869753 266.30963,233.488861 266.30963,245.354632 C266.30963,257.220402 275.938247,266.83951 287.815748,266.83951 C299.693249,266.83951 309.321866,257.220402 309.321866,245.354632 C309.321866,233.607519 299.884858,224.06236 288.171391,223.872632 L287.815748,223.869753 Z M179.610936,81.0768417 L180.273662,81.0262703 C184.936076,80.6925532 189.760144,80.4259053 194.758886,80.2178082 C198.723857,56.8811143 205.571825,20.2630197 216.310127,16.7999651 C222.978767,14.6493588 228.087823,29.4308554 232.339012,45.8366868 L232.606374,46.8748616 C232.739491,47.394886 232.871767,47.9162089 233.003225,48.4383481 L233.405151,50.0469868 C233.471716,50.3153493 233.538072,50.5837964 233.604221,50.8522632 L233.998664,52.4627799 C235.958738,60.5113418 237.738457,68.4605742 239.418287,74.555123 C240.387752,78.0724134 241.243981,81.7652776 241.986975,85.6337154 C252.536538,88.5135745 263.963456,92.9033057 275.410243,99.5882118 C300.442269,114.206877 328.681439,146.971814 334.520182,167.737163 L329.949489,163.543462 L316.282873,151.071214 C308.218089,143.738808 300.12423,137.959004 292.602583,133.297413 C266.744012,112.893207 234.464667,100.525609 199.375592,99.8736024 C195.935627,99.655193 192.450039,99.5459883 188.918831,99.5459883 C184.640421,99.5459883 180.436726,99.652312 176.307746,99.8649596 C175.312161,95.0551165 174.067739,90.5441521 172.576422,86.3312609 C172.078969,84.9259824 171.573445,83.4040146 171.058075,81.7954922 L171.398429,81.7635539 C170.12781,77.786874 168.797027,73.3068566 167.379949,68.7660045 L166.991314,67.5264144 C162.041007,51.8142577 156.032511,35.8561781 147.888499,37.8948681 C134.48181,41.2509635 126.642501,81.4371385 122.719081,99.3262865 C121.959068,102.791629 121.467114,106.535631 121.243218,110.558292 C116.558119,112.278822 112.014919,114.202065 107.613549,116.32714 C95.8639411,122.000099 63.9473562,140.227064 42.1099939,168.638251 C36.5674025,175.84936 28.8853413,188.232106 21.866955,203.298273 C27.0950458,184.882066 35.631565,166.522583 48.8341935,149.155183 C68.4804533,123.311507 87.3423486,106.731564 110.425089,96.2726213 C116.415163,63.0330578 127.183633,5.53380866 144.588489,0.30041121 C160.79523,-4.57272991 171.090434,51.0260003 179.610936,81.0768417 Z" class="raccoon" fill="#C2C2C2"></path>
    <path d="M188.243182,99.5459883 C191.809554,99.5459883 195.32985,99.6550667 198.80407,99.8732236 C234.242556,100.524476 266.843332,112.877775 292.959398,133.258389 C300.555944,137.91459 308.7304,143.687712 316.875492,151.01164 L330.678197,163.469468 L343.406572,175.020744 L344.888798,176.341933 L346.220785,177.507451 L346.476856,177.728437 L329.364021,173.253896 C338.910922,188.182798 346.057533,204.816326 350.254403,222.601016 C328.167064,173.698426 280.936205,139.909803 226.236726,139.909803 C150.384556,139.909803 88.8942217,204.883884 88.8942217,285.033475 C88.8942217,353.293386 137.426118,411.741372 197.513965,427.225439 C181.228632,430.584114 168.35774,426.74552 147.499146,415.422329 C164.986096,427.68436 176.547571,432.184079 186.158984,434.072726 C244.911495,443.594999 278.362455,434.681042 299.912756,419.826191 L309.221629,413.533681 C309.221629,415.356559 296.401728,436.064927 280.566659,444.932451 C256.831491,458.223973 231.649778,461.752293 213.517627,461.734103 C181.025453,461.701507 162.465667,458.223973 129.184576,444.932451 C106.217941,435.760229 85.6517887,422.403161 69.7720619,406.192268 C53.8923346,389.981374 39.6116763,369.196266 30.4181502,349.365465 C21.6425116,330.164212 18.3718928,313.120574 17.1182301,294.548871 C17.9540052,313.750124 21.8876961,333.108763 30.6633347,352.62479 C35.3390485,362.870581 52.725973,404.349427 105.034256,434.994146 C157.34254,465.638865 206.650378,464.999333 238.5333,461.734103 C262.51354,459.278212 290.917111,442.911486 293.380255,441.489111 L293.500151,441.419932 C293.528674,441.403532 293.545664,441.39388 293.550845,441.391236 C283.939432,452.408348 274.936185,458.650532 255.314134,464.999333 C243.95166,468.675712 207.53375,474.304469 157.518932,464.999333 C118.171675,457.678871 77.999677,426.992927 65.270223,415.422329 C52.1580514,403.503855 33.0697243,389.20462 17.1182301,344.052685 C1.16673581,298.90075 3.32794088,256.726404 17.1182301,217.208651 C5.56834937,245.027886 4.19995678,271.357546 4.19995678,287.411052 C4.19995678,317.944191 12.3106884,347.421472 26.1415698,371.776877 C39.8341423,395.888728 66.1058792,423.211553 97.0406353,442.69198 L97.9761909,443.277056 L96.8691432,442.634072 C80.9674375,433.349346 65.6454972,422.854945 53.5979889,410.857739 C41.2703061,398.581528 31.0312138,385.784349 23.0913503,371.776877 C15.1514869,357.769406 9.53828113,342.521991 5.56834937,327.412809 C3.64590738,320.096178 -2.39960355,285.770683 3.32794088,252.549337 C9.42804095,217.167066 28.9154685,182.785591 39.9724512,168.558367 C62.0272657,140.180029 94.2616699,121.974137 106.128279,116.307737 C129.529981,105.133238 156.901616,99.5459883 188.243182,99.5459883 Z M98.6242661,306.011742 C101.663156,322.356947 108.500658,338.128637 119.136773,353.326811 C129.393026,368.238226 143.447892,380.42544 161.30137,389.888454 C143.447892,380.712198 129.013165,368.668362 117.997189,353.756947 C106.981213,338.558774 100.523572,322.643705 98.6242661,306.011742 Z" class="left-c" fill="#858585"></path>
    <path d="M225.843537,124.616495 C271.059622,132.731453 309.150263,158.626198 340.11546,202.300732 C327.214556,193.208234 316.119992,187.600141 306.831768,185.476453 C282.323178,163.1604 249.4393,149.537688 215.009972,149.537688 C145.100835,149.537688 92.0703733,211.910276 92.0703733,282.966215 C92.0703733,354.022154 169.613696,416.707686 249.874517,416.707686 C278.174187,416.707686 287.382235,410.593733 304.152341,400.249575 C303.308395,401.62455 285.23308,420.304574 264.626212,424.565497 C238.328384,430.003151 206.954597,420.728325 191.722012,416.707686 C203.977507,424.675295 235.53627,437.146145 264.626212,431.847782 C290.81314,427.078165 315.296488,404.954443 316.774563,403.120678 C299.909896,439.962276 262.669376,446.90279 247.256784,448.506742 C207.735567,452.619622 178.731231,446.822668 145.297076,431.847782 C124.798785,422.666764 109.427861,411.959443 95.0305044,397.248228 C80.6331478,382.537012 72.1687363,369.984946 63.8334246,351.988702 C55.8769907,334.563767 53.0756122,311.996837 51.9389788,295.143212 C51.186361,310.810629 53.3595565,326.735995 58.4585652,342.919308 C67.9005574,372.886451 86.7269841,397.248228 111.287934,416.707686 C141.247025,440.444053 198.772436,458.679695 237.118662,453.814078 C281.510737,448.181324 289.448888,439.933996 303.717962,428.515388 L304.151294,428.16917 L303.697675,428.68319 C294.984624,438.419672 282.048453,445.614273 267.899327,449.825216 C253.50197,454.110036 238.725736,456.252446 223.570624,456.252446 C206.95829,456.252446 182.194009,453.215136 168.099555,449.825216 C154.005102,446.435297 111.287934,434.520347 77.2262792,397.248228 C53.5101467,371.296742 44.5063361,344.759744 41.497173,314.998474 C38.9668632,289.973166 40.7935173,269.916888 46.0663554,246.570781 C50.6298376,226.36543 63.5813657,211.831245 65.3722186,209.893222 L65.4092937,209.85117 L65.3820677,209.880656 C65.3626549,209.900223 65.3418733,209.921123 65.3197466,209.943355 L65.1710347,210.092715 C62.6764987,212.600097 49.4345462,226.115834 43.2423282,249.767296 C35.8710095,277.922388 35.8710095,317.006825 43.2423282,341.997028 C57.3845202,389.941808 99.8666118,424.565497 131.218546,440.839214 C95.903082,428.168399 72.9437576,406.1654 61.8729297,390.379211 C50.8021018,374.593022 31.1217603,351.988702 28.7580146,299.557367 C26.3942688,247.126031 46.8458107,195.636349 83.2896388,161.04436 C124.10862,122.299535 183.687774,117.050776 225.843537,124.616495 Z M70.0508806,317.072407 C71.2318683,327.376273 79.5495252,356.616044 95.2558671,377.720074 C107.40926,394.050137 125.366468,403.252007 139.180039,409.244618 C124.023462,400.897007 107.089763,389.209923 95.2558671,373.080805 C80.1998234,352.56003 71.9275524,327.129444 70.0508806,317.072407 Z" class="right-c" fill="#4B4B4B"></path>
  </g>
</svg>
