<?xml version="1.0" encoding="UTF-8"?>
<svg xmlns="http://www.w3.org/2000/svg" xmlns:xlink="http://www.w3.org/1999/xlink" viewBox="0 0 5582 5657" version="1.1">
  <g class="Page-1" stroke="none" stroke-width="1" fill="none" fill-rule="evenodd">
    <g class="wild-willy" fill="#000000" transform="translate(0.036303, 0.514016)">
      <path d="M2208.50398,1101.78021 C2241.12075,1116.42422 2286.9828,1143.35698 2313.06184,1191.71163 C2342.92466,1247.08199 2352.51335,1311.23449 2383.31519,1411.03042 C2391.51583,1437.59995 2409.10109,1481.75181 2436.07096,1543.48598 C2265.10631,1528.96351 2149.68229,1540.29684 2089.7989,1577.48598 C1879.03745,1708.37433 1756.3756,2003.37543 1636.43953,2099.09939 C1600.75666,2127.57877 1448.15644,2239.00735 1352.58235,2337.48598 C1215.89835,2478.32387 1101.94132,2652.49467 1010.71126,2859.99836 C1051.98014,2341.28756 1136.39762,1983.98962 1263.9637,1788.10454 C1367.27925,1629.45753 1537.22757,1330.48223 1723.39111,1206.55422 C1928.42382,1070.06511 2147.71126,1074.48598 2208.50398,1101.78021 Z M2044.15266,1245.10738 C2038.96833,1242.9275 2032.5118,1243.90605 2027.30623,1246.03469 C2008.25486,1253.8251 1961.86129,1274.21847 1909.50107,1292.47829 C1867.90209,1306.9853 1812.08224,1313.92823 1811.75239,1315.44881 C1806.47783,1339.76459 1867.09251,1411.02504 1933.64839,1455.85195 C1992.10003,1495.22048 2054.82181,1510.31342 2085.78694,1508.45022 C2183.27433,1502.58432 2221.46208,1419.82533 2222.63484,1413.31388 C2223.75777,1407.07906 2207.32703,1394.72556 2201.25276,1396.5248 C2196.47348,1397.94046 2121.83015,1514.41872 2033.56367,1438.25051 C1950.97318,1366.9803 2055.2457,1285.4622 2063.71248,1275.28054 C2053.5026,1256.35504 2046.98266,1246.29732 2044.15266,1245.10738 Z" class="mask" fill-rule="nonzero"></path>
      <path d="M232.193372,1965.50295 C250.55519,2043.89439 264.15482,2098.1702 272.992261,2128.33041 C305.298703,2238.58503 331.036911,2296.7622 340.963697,2306.10357 C354.963697,2319.27795 385.058871,2278.00706 431.249219,2182.29092 C518.562895,2447.70107 567.645984,2582.32481 578.498487,2586.16213 C594.77724,2591.91811 650.807569,2437.20119 672.493604,2437.20119 C686.950961,2437.20119 744.751701,2516.10236 845.895825,2673.90469 L968.115796,2586.16213 C953.281793,2632.56954 943.342869,2672.67749 938.299024,2706.48598 C933.255179,2740.29447 929.576346,2791.46527 927.262525,2859.99836 C793.619374,2703.05637 708.6964,2614.19523 672.493604,2593.41494 C659.857984,2586.16213 630.92884,2732.41127 616.529004,2725.59927 C591.268319,2725.4786 578.591479,2725.4786 578.498487,2725.59927 C574.316003,2722.138 424.497632,2423.72805 416.359097,2423.72805 C410.933406,2423.72805 392.801606,2446.13456 361.963697,2490.94759 C228.279364,2335.197 202.855782,2179.99685 232.193372,1965.50295 Z" class="fur" fill-rule="nonzero"></path>
      <path d="M1079.39998,654.721092 C1074.71654,609.726416 1070.50092,579.735368 1066.75313,564.747947 C1057.95345,529.558099 1045.96385,521.904899 1036.82319,521.904899 C1029.97356,521.904899 1016.97711,529.525942 1007.66212,556.107475 C986.419225,616.726845 961.558168,725.01044 948.442151,749.027977 C949.05256,742.522562 949.317479,651.620279 952.923413,583.249076 C956.220797,520.728231 962.372746,480.986932 972.887036,460.914756 C997.02903,414.82678 1063.49025,359.396545 1073.61751,351.615104 C1088.79171,368.91032 1118.93452,435.100432 1116.27339,512.949729 C1115.53238,534.627359 1113.94713,571.393521 1100.79072,612.88491 C1097.7323,622.530258 1090.60205,636.475652 1079.39998,654.721092 Z" class="ear-hole" fill-rule="nonzero"></path>
      <g class="CAMP" transform="translate(1598.283697, 2251.345984)" fill-rule="nonzero">
        <path d="M364.88,0 C312.922401,0 264.534229,8.90476766 219.969106,26.7983399 C175.43485,44.6795184 136.545178,69.8134552 103.573281,102.105519 C70.4706738,134.525598 44.8598887,172.941776 26.8739943,217.058121 C8.92956011,261.072771 0,308.921734 0,360.34 C0,419.144897 9.71812561,471.589264 29.4178799,517.442141 C49.1220836,563.305373 76.4251514,601.94179 111.237323,632.962537 C145.473681,663.470183 184.533628,686.566499 228.174795,702.128466 C271.369293,717.531155 317.000917,725.22 364.88,725.22 C384.442984,725.22 403.711185,723.698826 422.665768,720.652554 C441.378593,717.645136 459.911178,713.30417 478.251638,707.6353 L480.113513,707.054207 C497.475041,701.5833 514.389226,694.786092 530.841177,686.670775 L532.354,685.918341 L532.051781,686.065876 C557.788458,673.712271 574.755272,652.295145 580.509086,624.572225 L580.677601,623.741263 C586.051891,596.604256 578.640862,570.236709 560.371666,547.058138 L560.131384,546.758257 C545.791359,528.321082 526.692352,516.695599 504.312369,513.42048 C484.215622,510.479492 464.099424,513.872586 444.790524,523.0673 L444.188343,523.354053 L443.596596,523.661762 C431.778802,529.807014 419.613493,534.018083 406.992608,536.355284 C392.921233,538.961094 378.893048,540.26 364.88,540.26 C339.339214,540.26 315.983229,536.538442 294.652823,529.174373 C274.43738,522.195232 257.138636,511.650107 242.394014,497.381119 C227.686902,483.148429 216.007973,465.08823 207.346178,442.815042 C198.573083,420.255657 194.04,392.798123 194.04,360.34 C194.04,333.121177 198.021544,308.718164 205.86242,286.966058 C213.478187,265.838446 224.471638,247.83818 238.945241,232.640897 C253.289905,217.578999 270.647182,205.96758 291.370846,197.678114 C312.404321,189.264724 336.839961,184.96 364.88,184.96 C379.656217,184.96 393.641565,186.47193 406.882625,189.469905 L408.326216,189.80215 C420.813862,192.723033 432.691732,196.721128 443.993612,201.797895 L445.183,202.337341 L444.790524,202.1527 C463.548396,211.08502 482.986667,214.832156 502.499799,212.928436 L503.203886,212.856764 C525.702361,210.471049 544.862196,199.262369 558.751634,180.92995 L559.284,180.218341 L559.613318,179.810734 C577.18354,157.863085 584.306871,131.952646 579.912554,104.610232 L579.768484,103.738566 C574.942256,75.3265997 558.370581,53.0463494 532.489306,39.825649 L532.058578,39.6084533 C506.920224,26.699569 480.135132,16.8670666 451.76958,10.1133638 C423.448134,3.37016237 394.464737,0 364.88,0 Z" class="Path"></path>
        <path d="M949.264023,0.845649081 L950.351,0.93 L950.937314,0.94310349 C967.994374,1.410871 984.138845,6.54794311 998.655968,16.0194984 L999.380465,16.4966866 L1000.10223,16.9810898 C1015.51531,27.4222083 1026.92832,41.9652645 1033.95495,59.6800374 L1034.27132,60.4874355 L1034.552,61.223 L1257.84859,593.13778 L1258.05513,593.674795 C1262.66863,605.669898 1265.128,617.474854 1265.128,629.108 C1265.128,655.754264 1255.65507,679.030616 1236.87923,696.197095 C1219.50208,712.084779 1198.81982,720.68 1176.28,720.68 C1157.06551,720.68 1139.16834,714.622495 1123.80331,702.966268 C1109.76483,692.316388 1099.02537,678.129366 1091.68218,661.054322 L1091.41971,660.437772 L1054.147,573.584 L833.561,573.584 L796.611,660.482 L796.354335,661.157064 C789.75711,678.220645 779.401796,692.409681 765.450699,702.918349 L764.77284,703.423957 L764.089373,703.923801 C748.916831,714.910814 731.609272,720.68 713.2,720.68 C686.626572,720.68 663.968098,712.183072 648.163815,693.94736 C634.129099,677.753457 627.076,657.679253 627.076,635.464 C627.076,626.500829 628.456536,617.43732 631.10331,608.307478 L631.402601,607.29278 L631.965969,605.414889 L858.764,60.733 L858.940035,60.2990659 C866.375148,42.1258571 878.057619,27.2193217 893.642426,16.4249907 L894.353513,15.9371744 L895.059393,15.4620888 C911.476686,4.51722619 929.967456,-0.513148324 949.264023,0.845649081 Z M943.183,218.654 L852.825,431.164 L1034.38,431.164 L943.183,218.654 Z" class="Shape"></path>
        <path d="M1531.728,53.4903414 L1692.79,301.380341 L1864.64008,44.642017 L1864.89536,44.2792506 C1883.32129,18.0950298 1909.56901,3.632 1940.464,3.632 C1964.50214,3.632 1986.49004,12.3248914 2004.8462,28.7488301 C2024.34319,46.1935015 2034.55466,69.5640419 2034.76,96.2115009 L2034.76,97.02 L2034.76,622.752 C2034.76,648.20817 2025.8871,670.91236 2008.58062,688.727856 C1990.83899,706.991296 1967.31375,716.14 1940.464,716.14 C1913.76237,716.14 1890.26083,707.100949 1872.27994,689.120058 C1854.63733,671.477449 1845.44484,648.889667 1845.26276,623.521579 L1845.26,622.752 L1845.26,384.454341 L1764.11708,508.158842 L1762.85038,509.707036 C1754.5123,519.898023 1744.28765,528.532169 1732.38249,535.587078 C1718.92086,543.56434 1704.33631,547.643761 1689.29962,547.337573 L1688.5078,547.317406 L1688.096,547.302341 L1687.89758,547.310763 C1673.40603,547.814515 1659.27101,543.963056 1646.0107,536.403919 L1645.30116,535.995422 L1644.60551,535.587078 C1633.00561,528.713064 1623.00115,520.339761 1614.78273,510.487887 L1614.13762,509.707036 L1612.67047,507.913852 L1531.728,379.930341 L1531.728,622.752 C1531.728,647.212867 1523.85475,669.144302 1508.28296,686.737541 L1507.76682,687.315964 L1507.24509,687.89123 C1490.16369,706.574014 1467.20533,716.14 1441.064,716.14 C1415.4182,716.14 1392.78645,706.48011 1375.79091,687.89123 C1359.70596,670.298326 1351.48577,648.230727 1351.308,623.557483 L1351.308,622.752 L1351.308,97.02 C1351.308,71.5340214 1361.12034,48.7269592 1379.60651,30.7404146 C1397.91379,12.9279322 1420.8954,3.632 1446.512,3.632 C1461.05509,3.632 1475.55096,7.31739004 1489.84932,14.2359484 C1499.72954,19.0167007 1508.4114,25.0203862 1515.6924,32.2497344 L1531.728,53.4903414 Z" class="Path"></path>
        <path d="M2480.372,4.54 C2519.3808,4.54 2556.1443,15.851844 2589.81943,38.0552294 C2622.61566,59.6791159 2649.07373,88.8369952 2668.94998,125.040165 C2689.04282,161.637825 2699.064,202.438353 2699.064,246.84 C2699.064,290.661069 2689.02905,331.159246 2668.94998,367.731835 C2649.11641,403.85727 2622.74027,433.104282 2590.06058,455.010446 C2556.68083,477.385884 2520.22827,488.908331 2481.54467,489.136542 L2480.37176,489.14 L2360.38,489.138341 L2360.38,622.752 C2360.38,647.212867 2352.50675,669.144302 2336.93496,686.737541 L2336.41882,687.315964 L2335.89709,687.89123 C2318.81569,706.574014 2295.85733,716.14 2269.716,716.14 C2244.0702,716.14 2221.43845,706.48011 2204.44291,687.89123 C2188.35796,670.298326 2180.13777,648.230727 2179.96,623.557483 L2179.96,97.928 C2179.96,72.2471563 2189.15913,49.3807595 2206.97994,31.5599423 C2224.62255,13.9173334 2247.21033,4.72484467 2272.57842,4.54 L2480.372,4.54 Z M2466.70479,184.06627 L2360.104,184.384302 L2360.104,311.06627 L2466.70479,310.789499 C2474.465,310.789499 2482.021,307.731322 2489.37277,301.614967 C2496.72455,295.498612 2502.85104,287.566464 2507.75222,277.818523 C2512.65341,268.070582 2515.104,257.844801 2515.104,247.14118 C2515.104,236.055287 2512.65341,225.733938 2507.75222,216.177133 C2502.85104,206.620329 2496.72455,198.879317 2489.37277,192.954098 C2482.021,187.028879 2474.465,184.06627 2466.70479,184.06627 Z" class="Shape"></path>
      </g>
      <g class="WILDMAN" transform="translate(467.491697, 3004.974326)" fill-rule="nonzero">
        <path d="M806.168,1.18765861 C829.432968,1.18765861 851.197528,9.84401773 870.447007,25.88525 C892.065912,43.9010044 903.188,69.0581072 903.188,98.2076586 C903.188,106.93271 901.882282,115.949103 899.405084,125.323091 L899.125025,126.36612 L898.81909,127.487882 L719.568,655.228 L719.394179,655.745848 C713.070011,674.214207 701.428958,689.236636 685.213463,699.570191 L684.562405,699.98103 L683.923358,700.376506 C669.559413,709.180214 653.995732,714.282821 637.678227,715.389675 L636.787437,715.446085 L635.672682,715.511659 L634.556,715.511659 C617.074851,715.511659 600.184505,710.469764 584.442535,700.929176 C568.182627,691.074687 555.58809,676.8804 547.028265,659.174184 L546.641962,658.36694 L546.418535,657.895261 L451.802,443.09 L356.756224,657.923213 L356.546038,658.36694 C347.980722,676.449274 335.251735,690.925376 318.745465,700.929176 C303.26156,710.313361 286.666622,715.345142 269.49125,715.511659 L268.632,715.511659 L267.445657,715.511659 L266.261625,715.437657 C250.314163,714.44094 234.856229,709.368806 220.175527,700.652139 C202.807941,690.340135 190.357226,674.91406 183.787755,655.727921 L4.3689098,127.487882 L4.06297479,126.36612 C1.4042285,116.617384 0,107.25586 0,98.2076586 C0,68.8674345 11.4424939,43.587506 33.5336869,25.6063025 C53.0168881,9.74788286 74.7843155,1.18765861 97.928,1.18765861 C116.402332,1.18765861 133.954349,6.13188887 149.857465,15.770141 C167.590772,26.5175996 180.145602,42.5569242 186.600215,62.4447532 L186.736,62.868 L290.099,376.209 L369.016716,186.696898 L369.199161,186.286397 C376.794426,169.197051 388.166074,155.106095 403.016431,144.710846 C418.231699,134.060158 435.747933,128.813996 454.408145,129.152342 L455.232128,129.170893 L455.68,129.184 L456.127872,129.170893 C474.54634,128.675655 491.870774,133.604315 506.994526,143.78472 L507.68045,144.251082 L508.343569,144.710846 C523.436171,155.275667 534.66981,169.690075 541.621457,187.127128 L541.82501,187.644108 L614.875,370.831 L716.451,62.868 L716.584948,62.4536955 C722.959008,42.8183839 735.41524,26.9755514 752.944774,16.2743212 L753.58058,15.8897711 L754.213235,15.5141584 C770.287209,6.05887977 787.823605,1.18765861 806.168,1.18765861 Z" class="Path"></path>
        <path d="M1090.928,3.91165861 C1064.37001,3.91165861 1040.88778,12.8451171 1022.67102,30.5558517 C1004.34193,48.3757991 994.816,71.3968022 994.816,97.2996586 L994.816,622.123659 C994.816,647.579828 1003.6889,670.284019 1020.99538,688.099515 C1038.73701,706.362954 1062.26225,715.511659 1089.112,715.511659 C1113.87179,715.511659 1136.35339,706.570111 1154.80808,689.572373 C1174.13557,671.77074 1184.316,648.462903 1184.316,622.123659 L1184.316,97.2996586 C1184.316,71.1773631 1174.46289,48.009251 1155.63159,30.1958588 C1137.48963,13.0345447 1115.33405,3.91165861 1090.928,3.91165861 Z" class="Path"></path>
        <path d="M1425.628,3.91165861 C1450.03405,3.91165861 1472.18963,13.0345447 1490.33159,30.1958588 C1508.97458,47.8311171 1518.81804,70.7145364 1519.01304,96.5169562 L1519.016,97.2997388 L1519.014,533.275 L1718.004,533.275659 C1742.70161,533.275659 1764.81703,541.467043 1782.43979,557.560043 L1783.0067,558.081912 L1783.57049,558.609261 C1801.95309,575.941428 1811.392,598.864494 1811.392,624.847659 C1811.392,650.334591 1801.86377,672.930104 1783.57049,690.178056 C1765.95444,706.787472 1743.70663,715.330799 1718.7998,715.511659 L1718.004,715.511659 L1422.904,715.511659 C1397.22316,715.511659 1374.35676,706.312533 1356.53594,688.491716 C1338.89333,670.849107 1329.70084,648.261326 1329.516,622.893237 L1329.516,622.123659 L1329.516,97.2996586 C1329.516,71.3968022 1339.04193,48.3757991 1357.37102,30.5558517 C1375.58778,12.8451171 1399.07001,3.91165861 1425.628,3.91165861 Z" class="Path"></path>
        <path d="M2235.212,3.91165861 C2284.31042,3.91165861 2328.68384,13.2716767 2367.93937,32.1984487 C2406.99557,51.0291171 2440.13206,77.5032454 2467.00461,111.355672 C2493.31093,144.494808 2513.06088,182.632641 2526.23178,225.522497 C2539.16931,267.6524 2545.612,312.420833 2545.612,359.711659 C2545.612,423.55965 2533.9853,482.191414 2510.61075,535.285056 C2486.69263,589.613338 2451.58452,633.368776 2405.60228,665.8675 C2359.07807,698.74927 2302.59395,715.181375 2237.19647,715.511659 L2018.2,715.511659 C1992.77596,715.511659 1970.11037,706.495596 1952.36808,689.023754 L1951.83194,688.491716 C1934.18933,670.849107 1924.99684,648.261326 1924.812,622.893237 L1924.812,97.2996586 C1924.812,71.6188149 1934.01113,48.7524181 1951.83194,30.9316009 C1969.47455,13.288992 1992.06233,4.09650328 2017.43042,3.91165861 L2235.212,3.91165861 Z M2233.61482,193.579006 L2121.60073,194.258668 L2121.60073,542.08075 L2233.61482,541.762679 C2262.12749,541.762679 2285.43547,533.737169 2303.53876,517.686148 C2321.64205,501.635128 2334.88008,480.398393 2343.25285,453.975944 C2351.62562,427.553495 2355.812,398.785128 2355.812,367.670842 C2355.812,344.458597 2353.43594,322.357577 2348.68383,301.367781 C2343.93172,280.377985 2336.57726,261.857577 2326.62045,245.806557 C2316.66364,229.755536 2303.99134,217.038189 2288.60355,207.654516 C2273.21576,198.270842 2254.88618,193.579006 2233.61482,193.579006 Z" class="Shape"></path>
        <path d="M2839.42,52.862 L3000.482,300.752 L3172.33208,44.0136756 L3172.58736,43.6509092 C3191.01329,17.4666885 3217.26101,3.00365861 3248.156,3.00365861 C3272.19414,3.00365861 3294.18204,11.69655 3312.5382,28.1204887 C3332.03519,45.5651601 3342.24666,68.9357005 3342.452,95.5831595 L3342.452,96.3916586 L3342.452,622.123659 C3342.452,647.579828 3333.5791,670.284019 3316.27262,688.099515 C3298.53099,706.362954 3275.00575,715.511659 3248.156,715.511659 C3221.45437,715.511659 3197.95283,706.472607 3179.97194,688.491716 C3162.32933,670.849107 3153.13684,648.261326 3152.95476,622.893237 L3152.952,622.123659 L3152.952,383.826 L3071.80908,507.5305 L3070.54238,509.078695 C3062.2043,519.269681 3051.97965,527.903827 3040.07449,534.958737 C3026.61286,542.935998 3012.02831,547.01542 2996.99162,546.709232 L2996.1998,546.689064 L2995.788,546.674 L2995.58958,546.682421 C2981.09803,547.186173 2966.96301,543.334714 2953.7027,535.775578 L2952.99316,535.367081 L2952.29751,534.958737 C2940.69761,528.084722 2930.69315,519.71142 2922.47473,509.859546 L2921.82962,509.078695 L2920.36247,507.28551 L2839.42,379.302 L2839.42,622.123659 C2839.42,646.584525 2831.54675,668.51596 2815.97496,686.1092 L2815.45882,686.687623 L2814.93709,687.262888 C2797.85569,705.945673 2774.89733,715.511659 2748.756,715.511659 C2723.1102,715.511659 2700.47845,705.851768 2683.48291,687.262888 C2667.39796,669.669985 2659.17777,647.602386 2659,622.929142 L2659,622.123659 L2659,96.3916586 C2659,70.90568 2668.81234,48.0986178 2687.29851,30.1120732 C2705.60579,12.2995908 2728.5874,3.00365861 2754.204,3.00365861 C2768.74709,3.00365861 2783.24296,6.68904865 2797.54132,13.6076071 C2807.42154,18.3883593 2816.1034,24.3920449 2823.3844,31.621393 L2839.42,52.862 Z" class="Path"></path>
        <path d="M3751.18802,0.217307688 L3752.275,0.301658607 L3752.86131,0.314762097 C3769.91837,0.78252961 3786.06285,5.91960172 3800.57997,15.391157 L3801.30446,15.8683452 L3802.02623,16.3527484 C3817.43931,26.7938669 3828.85232,41.3369231 3835.87895,59.051696 L3836.19532,59.8590941 L3836.476,60.5946586 L4059.77259,592.509439 L4059.97913,593.046454 C4064.59263,605.041557 4067.052,616.846512 4067.052,628.479659 C4067.052,655.125922 4057.57907,678.402274 4038.80323,695.568753 C4021.42608,711.456437 4000.74382,720.051659 3978.204,720.051659 C3958.98951,720.051659 3941.09234,713.994154 3925.72731,702.337927 C3911.68883,691.688046 3900.94937,677.501025 3893.60618,660.425981 L3893.34371,659.80943 L3856.071,572.955659 L3635.485,572.955659 L3598.535,659.853659 L3598.27833,660.528723 C3591.68111,677.592303 3581.3258,691.78134 3567.3747,702.290008 L3566.69684,702.795616 L3566.01337,703.295459 C3550.84083,714.282472 3533.53327,720.051659 3515.124,720.051659 C3488.55057,720.051659 3465.8921,711.554731 3450.08781,693.319019 C3436.0531,677.125116 3429,657.050912 3429,634.835659 C3429,625.872488 3430.38054,616.808978 3433.02731,607.679137 L3433.3266,606.664439 L3433.88997,604.786547 L3660.688,60.1046586 L3660.86403,59.6707245 C3668.29915,41.4975157 3679.98162,26.5909803 3695.56643,15.7966494 L3696.27751,15.308833 L3696.98339,14.8337474 C3713.40069,3.8888848 3731.89146,-1.14148972 3751.18802,0.217307688 Z M3745.107,218.025659 L3654.749,430.535659 L3836.304,430.535659 L3745.107,218.025659 Z" class="Shape"></path>
        <path d="M4673.044,3.91165861 C4697.81994,3.91165861 4719.72312,12.8975787 4736.17841,30.4498957 C4751.86166,47.1786905 4759.90025,68.3421836 4760.076,91.9795124 L4760.076,92.7596586 L4760.076,622.123659 C4760.076,647.804502 4750.87687,670.670899 4733.05606,688.491716 C4715.23524,706.312533 4692.36884,715.511659 4666.688,715.511659 C4654.63621,715.511659 4642.57105,713.462858 4630.60934,709.475624 C4616.6972,704.838243 4604.92608,697.731942 4595.92086,687.671454 L4595.41409,687.098834 L4594.76695,686.359249 L4328.776,348.626 L4328.776,626.663659 C4328.776,650.348645 4320.74595,671.575278 4305.03091,688.337067 L4304.51574,688.882062 L4303.99513,689.423877 C4287.20903,706.751459 4265.03478,715.511659 4239.928,715.511659 C4215.15206,715.511659 4193.24888,706.525738 4176.79359,688.973422 C4161.11034,672.244627 4153.07175,651.081134 4152.896,627.443805 L4152.896,626.663659 L4152.896,97.2996586 C4152.896,71.6188149 4162.09513,48.7524181 4179.91594,30.9316009 C4197.73676,13.1107838 4220.60316,3.91165861 4246.284,3.91165861 C4259.3817,3.91165861 4272.55876,6.4107561 4285.69768,11.2283586 C4301.22161,16.9204657 4314.02046,26.1574994 4322.96198,38.9541495 L4323.429,39.631 L4585.104,373.421 L4585.104,92.7596586 C4585.104,69.3285423 4592.80015,48.2961135 4607.97861,31.5592987 L4608.48733,31.0029984 L4609.00159,30.4498957 C4625.54832,12.80005 4647.7693,3.91165861 4673.044,3.91165861 Z" class="Path"></path>
      </g>
      <g class="HOME-OF-WILD-WILLY" transform="translate(2427.441982, 681.186553)" fill-rule="nonzero">
        <path d="M18.7741633,30.3941414 C23.9178241,29.8931648 28.6547548,31.3248847 32.9849555,34.6893013 C37.3151561,38.0537178 39.7516188,42.5220757 40.2943434,48.0943749 L58.3921236,233.909121 C58.9348483,239.48142 57.3528259,244.341166 53.6460566,248.488359 C49.9392872,252.635551 45.4069126,254.970073 40.0489326,255.491924 C34.047995,256.076396 29.0431652,254.670769 25.0344434,251.275041 C21.0257215,247.879314 18.7499983,243.3953 18.2072736,237.823001 L0.109493421,52.0082547 C-0.433231245,46.4359555 1.0416315,41.5866466 4.53408165,37.4603282 C8.0265318,33.3340097 12.7732257,30.9786141 18.7741633,30.3941414 Z M161.189272,16.5233514 C167.190209,15.9388787 172.195039,17.3445061 176.203761,20.7402337 C180.212483,24.1359612 182.488206,28.6199746 183.030931,34.1922738 L201.128711,220.00702 C201.671435,225.579319 200.250153,230.42341 196.864862,234.539291 C193.479571,238.655173 188.679298,241.015787 182.464041,241.621133 C177.32038,242.12211 172.583449,240.69039 168.253249,237.325974 C163.923048,233.961557 161.486585,229.493199 160.943861,223.9209 L142.846081,38.1061536 C142.303356,32.5338544 143.885378,27.6741086 147.592148,23.5269161 C151.298917,19.3797236 155.831292,17.045202 161.189272,16.5233514 Z M26.9212391,124.038405 L170.300784,110.073682 L173.901553,147.043744 L30.5220085,161.008467 L26.9212391,124.038405 Z" class="Shape"></path>
        <path d="M454.987516,116.595792 C455.597342,132.734274 453.476766,147.898495 448.625787,162.088455 C443.774808,176.278415 436.655222,188.884074 427.267028,199.905434 C417.878833,210.926793 406.574202,219.704083 393.353135,226.237305 C380.132068,232.770526 365.559883,236.337984 349.636581,236.939679 C333.713278,237.541373 318.96722,235.081765 305.398407,229.560854 C291.829593,224.039943 279.948604,216.138769 269.75544,205.857332 C259.562276,195.575894 251.511689,183.543471 245.603679,169.760061 C239.695669,155.976652 236.436752,141.015706 235.826926,124.877223 C235.217101,108.738741 237.337677,93.5745198 242.188656,79.3845599 C247.039634,65.1946 254.159221,52.5889404 263.547415,41.5675812 C272.935609,30.546222 284.186445,21.7709644 297.299922,15.2418085 C310.4134,8.7126526 324.93179,5.14722734 340.855092,4.54553274 C356.778395,3.94383814 371.578248,6.40141355 385.254651,11.918259 C398.931055,17.4351044 410.865839,25.3342458 421.059003,35.6156833 C431.252167,45.8971208 439.302754,57.9295443 445.210764,71.7129538 C451.118773,85.4963633 454.377691,100.457309 454.987516,116.595792 Z M413.027462,118.181338 C412.482685,103.764294 409.083799,90.8018918 402.830806,79.2941319 C396.577812,67.7863719 388.264495,58.7806944 377.890853,52.2770993 C367.517212,45.7735042 355.659819,42.7737679 342.318674,43.2778904 C328.977528,43.7820129 317.380327,47.6680291 307.52707,54.9359389 C297.673814,62.2038488 290.115591,71.7553932 284.852401,83.5905722 C279.589212,95.4257512 277.234072,108.659453 277.78698,123.291677 C278.331758,137.708721 281.676848,150.673156 287.822252,162.184981 C293.967656,173.696807 302.227178,182.704517 312.600819,189.208112 C322.974461,195.711707 334.831854,198.711444 348.172999,198.207321 C361.514145,197.703199 373.111346,193.817182 382.964603,186.549272 C392.817859,179.281363 400.427844,169.67399 405.794558,157.727156 C411.161272,145.780322 413.57224,132.598382 413.027462,118.181338 Z" class="Shape"></path>
        <path d="M513.74694,2.31954699 C516.761345,2.27978339 519.947886,3.04531934 523.306564,4.61615486 C526.665243,6.18699037 529.222882,8.2529347 530.979481,10.8139879 L611.055038,130.570205 L594.897922,130.137281 L673.733062,8.93089709 C677.747352,3.06343797 682.984217,0.0871045426 689.443655,0 C694.611205,-0.0662693662 699.264611,1.7028392 703.403873,5.30922253 C707.543135,8.91560585 709.651109,13.6255446 709.727796,19.4390388 L712.19456,206.43977 C712.268407,212.037949 710.500008,216.745184 706.889364,220.561474 C703.278721,224.377764 698.458994,226.325673 692.430185,226.4052 C686.401377,226.484727 681.478117,224.66534 677.660407,220.947039 C673.842697,217.228738 671.896919,212.570498 671.823072,206.972318 L669.81643,54.8525525 L682.450678,57.5931445 L617.88939,158.906525 C615.982801,161.300548 613.587495,163.377989 610.70347,165.13885 C607.819445,166.89971 604.86881,167.692364 601.851565,167.516813 C599.055315,167.769051 596.192456,167.053084 593.262987,165.36891 C590.333518,163.684737 587.884246,161.671201 585.915172,159.328303 L522.940902,62.6045225 L531.112371,45.3762417 L533.268126,208.800024 C533.341973,214.398203 531.681232,219.104018 528.285903,222.917468 C524.890574,226.730917 520.393819,228.674566 514.79564,228.750406 C509.412775,228.819419 504.973973,226.993641 501.479235,223.27108 C497.984497,219.548518 496.200204,214.888148 496.126358,209.289968 L493.657705,22.2892373 C493.588588,16.9063723 495.519182,12.250836 499.451378,8.32262841 C503.383573,4.39442083 508.148761,2.39339369 513.74694,2.31954699 Z" class="Path"></path>
        <path d="M785.069725,1.64182787 L893.253464,3.78674271 C898.851031,3.89772338 903.498395,5.76671391 907.195558,9.39371432 C910.892721,13.0207147 912.685812,17.6329982 912.574832,23.2305648 C912.468119,28.6128404 910.497886,32.9351343 906.664132,36.1974466 C902.830377,39.459759 898.114717,41.0354248 892.51715,40.9244441 L802.09492,39.1316795 L805.110196,33.699383 L803.861663,96.6720071 L801.329393,94.037293 L876.896542,95.535532 C882.494108,95.6465127 887.141473,97.5155032 890.838636,101.142504 C894.535799,104.769504 896.32889,109.381788 896.217909,114.979354 C896.111197,120.36163 894.140964,124.683924 890.307209,127.946236 C886.473455,131.208548 881.757794,132.784214 876.160228,132.673233 L801.561888,131.194203 L803.227793,128.642724 L801.934441,193.875904 L799.408573,190.918253 L889.507867,192.704615 C895.105433,192.815596 899.750664,194.792232 903.443558,198.634523 C907.136452,202.476815 908.933812,206.873807 908.835637,211.825501 C908.728925,217.207776 906.757624,221.583893 902.921735,224.953851 C899.085847,228.323809 894.369119,229.953297 888.771552,229.842317 L780.587814,227.697402 C774.990247,227.586421 770.345016,225.609785 766.652122,221.767494 C762.959228,217.925202 761.168271,213.205273 761.279252,207.607707 L764.98003,20.9503899 C765.091011,15.3528233 767.067647,10.7075928 770.909938,7.01469843 C774.75223,3.32180406 779.472159,1.5308472 785.069725,1.64182787 Z" class="Path"></path>
        <path d="M1253.59666,145.627365 C1252.06236,161.704318 1247.95085,176.453756 1241.26213,189.87568 C1234.57342,203.297604 1225.84606,214.848554 1215.08007,224.52853 C1204.31408,234.208507 1191.94594,241.410233 1177.97568,246.133707 C1164.00541,250.857181 1149.08898,252.461994 1133.22638,250.948146 C1117.36379,249.434298 1103.07376,245.042163 1090.35628,237.771741 C1077.63881,230.501319 1066.90972,221.095308 1058.16901,209.553707 C1049.4283,198.012106 1043.04332,185.018909 1039.01407,170.574115 C1034.98481,156.129321 1033.73734,140.868447 1035.27165,124.791495 C1036.80595,108.714542 1040.91746,93.9651037 1047.60618,80.54318 C1054.29489,67.1212563 1063.02225,55.5703061 1073.78824,45.8903294 C1084.55423,36.2103528 1096.86878,29.003513 1110.73186,24.26981 C1124.59495,19.536107 1139.45779,17.9261796 1155.32039,19.4400279 C1171.18298,20.9538761 1185.5266,25.3511254 1198.35126,32.6317758 C1211.17591,39.9124262 1221.95859,49.3235518 1230.6993,60.8651526 C1239.44001,72.4067534 1245.82499,85.3999509 1249.85424,99.8447451 C1253.8835,114.289539 1255.13097,129.550413 1253.59666,145.627365 Z M1211.79659,141.638171 C1213.16723,127.276093 1211.51617,113.977586 1206.84339,101.742651 C1202.17062,89.507715 1195.12411,79.4797482 1185.70385,71.6587502 C1176.2836,63.8377522 1164.92833,59.2930736 1151.63805,58.0247142 C1138.34777,56.7563549 1126.33787,59.071176 1115.60834,64.9691776 C1104.87881,70.8671792 1096.12144,79.3328222 1089.33621,90.3661068 C1082.55099,101.399391 1078.46283,114.204252 1077.07172,128.780689 C1075.70108,143.142767 1077.29855,156.436159 1081.86415,168.660866 C1086.42974,180.885573 1093.42266,190.908426 1102.84292,198.729424 C1112.26317,206.550422 1123.61844,211.0951 1136.90872,212.36346 C1150.199,213.631819 1162.2089,211.316998 1172.93843,205.418996 C1183.66796,199.520995 1192.48404,191.006876 1199.38667,179.87664 C1206.2893,168.746405 1210.42594,156.000248 1211.79659,141.638171 Z" class="Shape"></path>
        <path d="M1299.54713,267.731585 C1293.59743,266.754883 1289.06852,264.102031 1285.9604,259.773031 C1282.85228,255.444031 1281.75168,250.51717 1282.65862,244.99245 L1312.9015,60.7642822 C1313.80844,55.239562 1316.42641,50.9231405 1320.75541,47.8150176 C1325.08441,44.7068947 1330.01127,43.606302 1335.53599,44.5132396 L1439.12449,61.5183188 C1444.64921,62.4252563 1448.98307,64.9369807 1452.12608,69.0534918 C1455.26908,73.170003 1456.38712,77.9906186 1455.48018,83.5153388 C1454.71277,88.190102 1452.17329,92.0284227 1447.86173,95.030301 C1443.55017,98.0321793 1438.63203,99.0796496 1433.10731,98.1727121 L1347.04917,84.0454155 L1350.54565,80.6915191 L1340.02867,144.757024 L1338.47773,140.247221 L1409.55538,151.915321 C1415.0801,152.822259 1419.41396,155.333983 1422.55697,159.450494 C1425.69997,163.567005 1426.81801,168.387621 1425.91107,173.912341 C1425.14366,178.587104 1422.60418,182.425425 1418.29262,185.427303 C1413.98106,188.429182 1409.06292,189.476652 1403.5382,188.569714 L1331.82308,176.796967 L1335.1626,174.399272 L1322.50035,251.532865 C1321.59342,257.057585 1318.8692,261.356566 1314.32771,264.429806 C1309.78622,267.503047 1304.85936,268.60364 1299.54713,267.731585 Z" class="Path"></path>
        <path d="M1856.45086,178.186691 C1861.17456,179.675155 1865.12663,182.895964 1868.30705,187.849119 C1871.48747,192.802275 1872.10694,198.359529 1870.16546,204.520882 C1869.58302,206.369288 1868.6278,208.325999 1867.29979,210.391014 L1750.30769,369.946737 C1747.91053,373.255254 1744.81287,375.383513 1741.01471,376.331513 C1737.21654,377.279513 1733.53938,377.306117 1729.98323,376.411327 C1726.4918,375.311158 1723.37529,373.200275 1720.6337,370.07868 C1717.89212,366.957084 1716.21192,363.15397 1715.59312,358.669337 L1702.61588,240.791687 L1704.80604,243.513756 L1627.79383,331.003322 C1624.71582,334.32307 1621.15887,336.475931 1617.12297,337.461904 C1613.08706,338.447878 1609.32339,338.39078 1605.83196,337.290611 C1602.61062,336.049779 1599.66432,333.936089 1596.99307,330.949541 C1594.32182,327.962992 1592.95249,324.427164 1592.88511,320.342057 L1588.49855,122.539282 C1588.59428,120.085972 1588.93337,117.935114 1589.51582,116.086708 C1591.45729,109.925354 1595.20211,105.743311 1600.75027,103.540579 C1606.29844,101.337846 1611.43437,100.980712 1616.15808,102.469176 C1620.06027,103.698777 1623.38216,105.874375 1626.12374,108.99597 C1628.86533,112.117566 1630.23746,115.823606 1630.24013,120.114092 L1632.43334,284.037433 L1625.75293,281.593743 L1702.60068,190.327138 C1705.40859,187.148053 1708.69265,184.965642 1712.45284,183.779906 C1716.21303,182.594169 1720.01187,182.718791 1723.84934,184.15377 C1727.81625,185.177992 1731.00028,187.253709 1733.40144,190.38092 C1735.8026,193.508131 1737.13956,197.146648 1737.41233,201.296471 L1745.81509,314.346117 L1739.91527,315.873614 L1834.48899,184.473979 C1836.95086,180.960084 1840.25109,178.726328 1844.38969,177.772713 C1848.52828,176.819097 1852.54867,176.95709 1856.45086,178.186691 Z" class="Path"></path>
        <path d="M1879.8336,410.005787 C1877.69634,415.180456 1874.0177,418.728345 1868.79767,420.649454 C1863.57764,422.570563 1858.47981,422.50359 1853.50416,420.448536 C1847.93144,418.146875 1844.17263,414.55585 1842.22773,409.675463 C1840.28283,404.795075 1840.37901,399.767547 1842.51627,394.592878 L1913.78556,222.037559 C1915.92282,216.86289 1919.50195,213.2739 1924.52295,211.270589 C1929.54395,209.267277 1934.84081,209.416452 1940.41353,211.718113 C1945.19015,213.690966 1948.70018,217.179237 1950.94362,222.182928 C1953.18705,227.186619 1953.24014,232.275799 1951.10289,237.450468 L1879.8336,410.005787 Z" class="Path"></path>
        <path d="M2044.29418,471.561807 C2049.297,474.075135 2052.68456,477.765065 2054.45685,482.631597 C2056.22914,487.498129 2055.85862,492.432808 2053.34529,497.435632 C2050.92863,502.24604 2047.23916,505.392847 2042.27687,506.876054 C2037.31459,508.35926 2032.33204,507.844199 2027.32921,505.330872 L1933.52626,458.205977 C1928.52343,455.692649 1925.18421,451.906511 1923.50859,446.847562 C1921.83296,441.788614 1922.25182,436.757727 1924.76514,431.754903 L2008.57496,264.92995 C2011.08828,259.927126 2014.92253,256.612069 2020.07768,254.984779 C2025.23284,253.35749 2030.50425,253.897175 2035.8919,256.603836 C2040.5099,258.923831 2043.75291,262.661636 2045.62095,267.817251 C2047.48899,272.972866 2047.16634,278.052085 2044.65302,283.05491 L1966.49819,438.623507 L1962.61345,430.526898 L2044.29418,471.561807 Z" class="Path"></path>
        <path d="M2280.75781,398.794818 C2293.72869,407.287767 2303.66594,417.269095 2310.56955,428.738803 C2317.47316,440.208511 2321.5324,452.582716 2322.74728,465.861416 C2323.96215,479.140116 2322.58091,492.649352 2318.60355,506.389125 C2314.62619,520.128898 2308.39103,533.484227 2299.89809,546.455111 C2288.4562,563.929775 2274.89379,577.763858 2259.21087,587.95736 C2243.52795,598.150861 2226.92446,603.559074 2209.4004,604.181997 C2191.87634,604.804921 2174.37697,599.395438 2156.90231,587.953549 L2092.31811,545.665744 C2087.63418,542.598846 2084.74802,538.456945 2083.65964,533.240041 C2082.57125,528.023137 2083.56051,523.07272 2086.6274,518.388789 L2188.89666,362.197723 C2191.96356,357.513792 2196.10546,354.627633 2201.32236,353.539246 C2206.53926,352.450859 2211.48968,353.440114 2216.17361,356.507012 L2280.75781,398.794818 Z M2174.54773,555.108108 C2185.89725,562.539438 2197.09185,565.686798 2208.13152,564.55019 C2219.17119,563.413582 2229.51279,559.117341 2239.15632,551.66147 C2248.79985,544.205598 2257.33728,534.8029 2264.76861,523.453376 C2270.31262,514.986271 2274.64543,506.305229 2277.76704,497.410249 C2280.88865,488.515269 2282.3846,479.842789 2282.2549,471.392808 C2282.1252,462.942827 2280.11837,455.001121 2276.23443,447.56769 C2272.35048,440.134259 2266.17496,433.645539 2257.70785,428.101531 L2210.41817,397.137657 L2214.71286,396.47498 L2128.01401,528.886092 L2128.33896,524.851979 L2174.54773,555.108108 Z" class="Shape"></path>
        <path d="M2674.82595,744.699042 C2678.31477,748.214308 2680.31456,752.904001 2680.82534,758.768123 C2681.33612,764.632245 2679.29894,769.839619 2674.71382,774.390244 C2673.33828,775.755432 2671.58237,777.04305 2669.44609,778.2531 L2491.65369,865.057713 C2487.99249,866.871062 2484.26033,867.313761 2480.45721,866.385809 C2476.6541,865.457857 2473.38678,863.770605 2470.65525,861.324052 C2468.07657,858.725813 2466.29999,855.407345 2465.32552,851.368648 C2464.35105,847.329952 2464.63318,843.181804 2466.17191,838.924202 L2509.52745,728.543741 L2510.1997,731.972237 L2401.3255,773.586112 C2397.0564,775.092636 2392.90624,775.343425 2388.87502,774.338479 C2384.8438,773.333533 2381.53884,771.53194 2378.96015,768.933701 C2376.68599,766.336611 2375.06139,763.094849 2374.08635,759.208416 C2373.1113,755.321982 2373.54426,751.555065 2375.38521,747.907664 L2463.5303,570.776007 C2464.75645,568.648932 2466.05729,566.9028 2467.43283,565.537613 C2472.01796,560.986987 2477.27849,559.027413 2483.21444,559.658891 C2489.15038,560.290369 2493.86275,562.363741 2497.35156,565.879006 C2500.23363,568.782921 2502.16189,572.254227 2503.13636,576.292923 C2504.11083,580.331619 2503.60117,584.250512 2501.60738,588.0496 L2427.28324,734.171447 L2422.5068,728.900274 L2532.9927,683.866529 C2536.95727,682.358855 2540.87962,681.95494 2544.75972,682.654786 C2548.63983,683.354632 2551.9445,685.232356 2554.67372,688.287959 C2557.70862,691.040186 2559.56133,694.358942 2560.23185,698.244225 C2560.90237,702.129509 2560.39299,705.97227 2558.70373,709.772508 L2513.54519,813.751041 L2507.61212,812.35825 L2652.46061,740.046631 C2656.27465,738.081594 2660.2352,737.639758 2664.34226,738.721122 C2668.44933,739.802487 2671.94389,741.795127 2674.82595,744.699042 Z" class="Path"></path>
        <path d="M2591.67432,955.692831 C2587.56418,959.49439 2582.73686,961.17276 2577.19236,960.727942 C2571.64786,960.283123 2567.04794,958.084687 2563.3926,954.132633 C2559.29861,949.706333 2557.39202,944.870114 2557.67282,939.623976 C2557.95362,934.377838 2560.14909,929.853989 2564.25923,926.05243 L2701.31644,799.285046 C2705.42658,795.483487 2710.18079,793.726075 2715.57907,794.012812 C2720.97736,794.299549 2725.7235,796.656067 2729.81748,801.082367 C2733.32662,804.876338 2735.05044,809.514955 2734.99055,814.998216 C2734.92748,820.481477 2732.84167,825.123888 2728.73153,828.925447 L2591.67432,955.692831 Z" class="Path"></path>
        <path d="M2721.26383,1072.31935 C2725.01061,1076.47948 2726.82489,1081.14847 2726.70668,1086.32633 C2726.58847,1091.50418 2724.4493,1095.9665 2720.28917,1099.71328 C2716.28904,1103.31595 2711.708,1104.90613 2706.54604,1104.4838 C2701.38409,1104.06148 2696.92972,1101.77025 2693.18294,1097.61012 L2622.93079,1019.60765 C2619.18401,1015.44751 2617.44972,1010.70647 2617.72794,1005.38451 C2618.00616,1000.06255 2620.22533,995.528174 2624.38546,991.781393 L2763.10987,866.840647 C2767.27,863.093866 2772.04707,861.399585 2777.44109,861.757805 C2782.8351,862.116024 2787.5496,864.535205 2791.5846,869.015347 C2795.04317,872.855469 2796.7054,877.516513 2796.57129,882.998479 C2796.43718,888.480445 2794.29006,893.094818 2790.12992,896.841599 L2660.76582,1013.35209 L2660.09042,1004.39719 L2721.26383,1072.31935 Z" class="Path"></path>
        <path d="M2839.6677,1211.44096 C2843.28517,1215.71401 2844.95545,1220.43643 2844.67854,1225.60823 C2844.40163,1230.78003 2842.12665,1235.17466 2837.8536,1238.79213 C2833.7449,1242.27046 2829.11725,1243.71944 2823.97067,1243.13905 C2818.82409,1242.55866 2814.44207,1240.13193 2810.8246,1235.85888 L2742.99703,1155.73915 C2739.37956,1151.46609 2737.79145,1146.6741 2738.23271,1141.36317 C2738.67397,1136.05225 2741.03112,1131.58805 2745.30418,1127.97058 L2887.79405,1007.34186 C2892.0671,1003.72439 2896.89387,1002.17737 2902.27437,1002.7008 C2907.65486,1003.22423 2912.29298,1005.78682 2916.18872,1010.38857 C2919.52792,1014.33293 2921.04646,1019.04275 2920.74433,1024.51802 C2920.44221,1029.9933 2918.15462,1034.53967 2913.88157,1038.15714 L2781.00607,1150.64655 L2780.60554,1141.67516 L2839.6677,1211.44096 Z" class="Path"></path>
        <path d="M3083.64115,1238.17839 C3086.63319,1242.12511 3087.83106,1246.82401 3087.23477,1252.2751 C3086.63847,1257.72619 3084.02377,1262.20793 3079.39066,1265.72033 C3077.8463,1266.89113 3076.09642,1267.87995 3074.14103,1268.6868 C3072.18564,1269.49366 3070.04549,1269.96769 3067.72059,1270.10891 L2939.77208,1275.09857 L2961.04471,1266.26749 L2887.17242,1322.2707 C2882.71091,1325.65301 2877.84041,1326.98097 2872.56091,1326.25458 C2867.28142,1325.5282 2863.14566,1323.19164 2860.15361,1319.24492 C2856.9014,1314.95501 2855.63848,1310.17031 2856.36486,1304.89082 C2857.09125,1299.61133 2859.6852,1295.28043 2864.14671,1291.89812 L2935.95984,1237.45597 L2929.28428,1245.75939 L2961.00781,1134.15892 C2961.93768,1130.7518 2963.17202,1127.92451 2964.71082,1125.67706 C2966.24962,1123.42961 2967.87701,1121.65544 2969.59297,1120.35455 C2974.22608,1116.84216 2979.36713,1115.78197 2985.01614,1117.17398 C2990.66514,1118.566 2994.92062,1121.14957 2997.78257,1124.9247 C3001.42506,1129.7294 3002.20988,1135.75475 3000.13704,1143.00077 L2969.39299,1244.13084 L2964.95884,1236.14325 L3066.16265,1231.16264 C3074.04241,1230.86351 3079.86858,1233.20209 3083.64115,1238.17839 Z" class="Path"></path>
      </g>
      <path d="M3468.2177,1013.51235 C3637.24687,1031.31196 4300.54709,1080.5265 4830.02191,1599.57679 C5472.63167,2229.53457 5572.08621,3023.49646 5580.03596,3276.91457 C5586.19319,3473.1916 5615.67245,4299.44735 4906.4186,4963.83187 C4877.96907,4990.48161 4823.47971,5030.74171 4761.05792,5072.35467 C4535.32559,5258.4206 4274.25324,5411.68406 3741.82795,5569.19814 C3068.73518,5768.32766 2203.46441,5602.2656 1680.30769,5286.69985 C1088.39856,4929.66296 780.41351,4348.46098 770.807005,4340.3915 C770.655462,4340.26806 1426.61688,3916.97188 2349.15022,3807.05093 C3135.50667,3713.35561 3603.20271,3947.19082 4161.86067,3966.21291 C4720.51863,3985.23501 4904.17614,3824.43984 4911.97102,3824.43984 C4977.09895,3824.43984 4938.42447,3947.97317 4739.93684,4042.38027 C4681.88221,4069.99292 4602.0501,4088.17359 4500.4405,4096.92226 C4522.41538,4191.38943 4504.80427,4357.61374 4576.35042,4524.78274 C4606.8887,4596.13606 4675.87007,4692.28398 4783.2945,4813.22651 C4920.37064,4652.02292 5060.93081,4467.2411 5178.55623,4268.94521 C5470.78273,3776.30243 5446.34389,3198.43463 5307.04426,2723.48074 C5238.09185,2488.38164 4928.73551,1813.74506 4378.94517,1435.38678 C4121.87643,1258.47555 3693.1363,1129.99876 3238.66975,1086.46829 C2734.15012,1038.14354 2400.98307,1070.86357 2388.91328,1066.20461 C2359.36689,1054.79512 2887.99424,952.411936 3468.2177,1013.51235 Z M2986.23665,3945.65908 C2986.23665,3934.96651 2798.9637,3919.95547 2784.90803,3945.65908 C2753.08239,4003.85868 2658.42365,4351.21181 2673.28962,4673.38962 C2699.21066,5235.15449 2843.62368,5458.26404 2863.11849,5468.41567 L2863.11849,5468.41567 L3238.66975,5468.41567 C3241.46293,5465.13473 3037.85943,5128.01928 2973.1302,4720.31173 C2920.02559,4385.82373 2986.23665,3956.35165 2986.23665,3945.65908 Z M3237.61238,3979.70168 C3202.9637,4058.6216 3126.4917,4336.21407 3176.3784,4735.11648 C3233.52836,5192.09708 3379.82039,5428.04901 3429.32795,5435.14373 C3485.99592,5443.1643 3984.71141,5319.48164 3982.63251,5316.01382 C3982.63251,5291.7405 3767.18038,5016.9714 3647.94978,4673.38962 C3551.04687,4394.14857 3536.73817,4041.39115 3533.25154,4039.7134 C3511.31081,4029.15564 3313.88972,3979.70168 3237.61238,3979.70168 Z M2478.4936,3968.05394 L2476.42617,3968.05394 C2476.08834,3968.05397 2475.75386,3968.05401 2475.42275,3968.05407 L2472.53366,3968.05492 C2458.54257,3968.06106 2451.36718,3968.0948 2451.00749,3968.15615 C2383.31519,3979.70168 2257.15958,4090.16939 2247.17952,4538.03408 C2235.22078,5074.6935 2321.61751,5276.46792 2337.48079,5300.91518 C2340.02482,5304.83585 2653.19697,5441.08368 2658.3697,5434.94222 C2661.32872,5431.42905 2541.68812,5142.26327 2514.48689,4742.26748 C2492.90847,4424.95538 2552.88395,3978.98528 2554.37874,3968.15615 C2523.72706,3968.0948 2499.89107,3968.06106 2482.87079,3968.05492 L2479.5576,3968.05407 C2479.19957,3968.05401 2478.8449,3968.05397 2478.4936,3968.05394 Z M4230.28718,4110.08816 C4220.54599,4103.34465 3864.4116,4084.59736 3835.35334,4090.90438 C3801.05101,4098.34961 3780.20159,4422.26516 3845.6761,4699.94378 C3915.44123,4995.81901 4073.7888,5246.54398 4101.10725,5253.15639 C4121.9613,5258.20411 4592.99289,4951.75884 4590.86506,4946.62356 C4585.24632,4933.05559 4408.7177,4705.86767 4315.80745,4486.73037 C4236.07412,4298.67206 4233.75946,4112.4919 4230.28718,4110.08816 Z M1584.21295,4849.50562 L1584.2005,4849.51768 C1577.76992,4941.04005 1530.9637,4994.8701 1530.9637,4994.8701 L1531.73872,4996.42505 C1537.94758,5008.6099 1581.56502,5089.31792 1666.32223,5128.48598 C1684.98147,5116.97516 1770.16036,5078.94428 1807.90052,4996.78857 C1808.19244,4996.08542 1807.42332,4995.7068 1806.60755,4995.35314 L1806.3353,4995.23577 C1806.0641,4995.1185 1805.80023,4995.00031 1805.58129,4994.8701 C1759.93468,4961.80468 1752.55532,4852.2261 1752.55532,4852.2261 C1752.55532,4852.2261 1713.65555,4854.25743 1667.69268,4853.91888 C1626.25969,4853.58371 1585.03333,4849.15614 1584.21295,4849.50562 Z M1846.1562,4837.48598 C1829.46745,4843.48703 1806.54683,4845.8648 1789.9637,4848.92194 C1796.93495,4897.72288 1804.22307,4931.80427 1831.57995,4966.45181 C1845.20557,4983.20944 1860.73245,4995.89089 1882.70245,4996.79671 C1901.60932,5000.41997 1955.37244,4992.15439 1958.9637,4913.12178 C1930.86745,4928.74714 1911.85495,4924.10482 1893.8987,4916.97151 C1866.4362,4893.42024 1858.72557,4873.83193 1846.1562,4837.48598 Z M1493.96618,4831.48598 C1481.18185,4867.75481 1473.68029,4887.46613 1445.9985,4910.66916 C1428.14269,4917.6526 1407.96245,4919.68005 1379.9637,4904.02363 C1383.34468,4981.96782 1441.45531,4992.89351 1463.643,4988.72598 C1485.83069,4987.82489 1496.0793,4975.20965 1509.70888,4958.53951 C1537.17936,4924.07286 1543.09608,4891.40839 1549.9637,4842.86223 C1533.58707,4839.93369 1510.76544,4837.56833 1493.96618,4831.48598 Z M1487.55368,4759.47281 C1467.12952,4768.60792 1477.3416,4783.04366 1478.81551,4784.96091 C1498.08159,4806.95285 1816.8669,4810.78735 1844.1342,4794.32158 C1851.7143,4793.75769 1869.08536,4774.698 1843.50252,4760.82616 C1763.17452,4747.51821 1582.51548,4737.25531 1487.55368,4759.47281 Z M1785.9637,4707.65351 C1803.46822,4709.46089 1803.99546,4713.18862 1856.82538,4718.94965 C1874.85715,4569.04981 2093.24189,4568.03316 2053.06585,4719.51446 C2083.43514,4728.89026 2137.2141,4718.38485 2179.39367,4654.44867 C2228.11108,4561.59436 2194.15652,4446.14776 2142.3811,4407.85383 C1906.07003,4262.02061 1813.90767,4607.90855 1785.9637,4707.65351 Z M1201.59694,4407.85465 C1149.84418,4446.14827 1115.79909,4561.70688 1164.49517,4654.22155 C1206.76168,4718.27017 1260.51708,4728.7755 1290.87308,4719.62569 C1250.60923,4567.80675 1468.89836,4569.04932 1486.92223,4719.06089 C1511.31544,4714.99431 1526.83322,4712.02525 1541.71008,4709.70575 L1542.94851,4709.51395 C1543.56716,4709.41879 1544.18509,4709.32474 1544.80291,4709.23176 L1546.03856,4709.04723 L1546.03856,4709.04723 L1547.27494,4708.8655 C1550.78008,4708.35453 1554.30687,4707.87665 1557.9637,4707.42596 C1529.82116,4607.90774 1437.80454,4262.02262 1201.59694,4407.85465 Z M1673.12325,4040.48598 C1462.79537,4148.24293 1456.38678,4339.83591 1524.67506,4495.54752 C1593.69874,4639.63717 1594.74933,4701.92181 1594.22404,4702.48598 C1593.8038,4702.48598 1670.39173,4699.77796 1670.49678,4699.77796 C1670.39173,4700.34213 1752.96801,4702.37315 1753.38824,4702.48598 L1753.41536,4700.92681 C1753.83638,4690.5555 1759.549,4626.92159 1830.9217,4449.51104 C1890.91031,4229.82227 1801.19003,4105.25299 1673.12325,4040.48598 Z M1287.62958,4481.69812 C1288.4371,4482.74172 1288.87808,4484.02241 1288.88425,4485.34193 L1288.98956,4507.8817 C1288.99878,4509.85646 1289.97914,4511.70024 1291.61113,4512.81216 L1310.23856,4525.50355 C1312.97706,4527.36937 1313.68451,4531.10191 1311.81869,4533.84041 C1311.07572,4534.93089 1309.99398,4535.74604 1308.74094,4536.15966 L1287.33689,4543.22499 C1285.46163,4543.844 1284.01104,4545.34613 1283.45785,4547.24185 L1277.14381,4568.87945 C1276.21556,4572.06048 1272.88432,4573.88673 1269.70328,4572.95847 C1268.43657,4572.58884 1267.32705,4571.81194 1266.54646,4570.74804 L1253.21272,4552.57489 C1252.04452,4550.98269 1250.16765,4550.06728 1248.19377,4550.12698 L1225.66405,4550.80836 C1222.35185,4550.90853 1219.58558,4548.30467 1219.48541,4544.99248 C1219.44552,4543.67355 1219.84154,4542.37825 1220.61214,4541.30711 L1233.77549,4523.01015 C1234.92876,4521.40711 1235.21939,4519.33922 1234.55265,4517.4804 L1226.94255,4496.26392 C1225.82376,4493.14479 1227.44535,4489.70928 1230.56448,4488.59048 C1231.80653,4488.14497 1233.16081,4488.12133 1234.41765,4488.52322 L1255.88679,4495.38824 C1257.76776,4495.9897 1259.82424,4495.62709 1261.38605,4494.41857 L1279.21247,4480.62469 C1281.83321,4478.59679 1285.60168,4479.07738 1287.62958,4481.69812 Z M2053.051,4480.69812 C2055.0789,4478.07738 2058.84736,4477.59679 2061.46811,4479.62469 L2061.46811,4479.62469 L2079.29453,4493.41857 C2080.85634,4494.62709 2082.91282,4494.9897 2084.79378,4494.38824 L2084.79378,4494.38824 L2106.26293,4487.52322 C2107.51977,4487.12133 2108.87405,4487.14497 2110.1161,4487.59048 C2113.23523,4488.70928 2114.85682,4492.14479 2113.73803,4495.26392 L2113.73803,4495.26392 L2106.12793,4516.4804 C2105.46119,4518.33922 2105.75182,4520.40711 2106.90509,4522.01015 L2106.90509,4522.01015 L2120.06844,4540.30711 C2120.83904,4541.37825 2121.23506,4542.67355 2121.19517,4543.99248 C2121.09499,4547.30467 2118.32872,4549.90853 2115.01653,4549.80836 L2115.01653,4549.80836 L2092.48681,4549.12698 C2090.51293,4549.06728 2088.63606,4549.98269 2087.46786,4551.57489 L2087.46786,4551.57489 L2074.13412,4569.74804 C2073.35353,4570.81194 2072.244,4571.58884 2070.9773,4571.95847 C2067.79626,4572.88673 2064.46502,4571.06048 2063.53676,4567.87945 L2063.53676,4567.87945 L2057.22273,4546.24185 C2056.66954,4544.34613 2055.21895,4542.844 2053.34369,4542.22499 L2053.34369,4542.22499 L2031.93964,4535.15966 C2030.6866,4534.74604 2029.60486,4533.93089 2028.86188,4532.84041 C2026.99607,4530.10191 2027.70352,4526.36937 2030.44202,4524.50355 L2030.44202,4524.50355 L2049.06945,4511.81216 C2050.70144,4510.70024 2051.68179,4508.85646 2051.69102,4506.8817 L2051.69102,4506.8817 L2051.79633,4484.34193 C2051.8025,4483.02241 2052.24347,4481.74172 2053.051,4480.69812 Z" class="tail"></path>
      <path d="M4352.17708,1758.15844 C4344.73591,1764.58061 4506.34461,1862.23086 4658.34224,2008.40255 C4820.65758,2164.49648 4996.15974,2399.80916 4996.15974,2395.24099 C4996.15974,2360.7322 4982.16622,2171.90809 4756.27546,1961.95339 C4568.47944,1787.40594 4367.56453,1744.87817 4352.17708,1758.15844 Z" class="stripe1"></path>
      <path d="M4358.11274,1948.70083 C4404.84919,1948.70083 4564.38201,2007.13575 4666.65034,2125.24892 C4786.23799,2263.36477 4824.55499,2383.7112 4808.95796,2395.24099 C4800.2441,2401.68253 4664.36853,2252.07232 4536.70881,2125.24892 C4435.86893,2025.06966 4346.08076,1948.70083 4358.11274,1948.70083 Z" class="stripe2"></path>
      <path d="M4358.11274,2136.83321 C4369.71565,2147.43587 4405.68714,2179.37671 4476.1811,2244.92867 C4548.56327,2312.23647 4628.09927,2390.50186 4629.79036,2389.14907 C4631.64691,2387.66392 4584.6452,2279.41512 4491.00584,2205.55172 C4397.36647,2131.68832 4346.50984,2126.23055 4358.11274,2136.83321 Z" class="stripe3"></path>
      <path d="M2682.04487,1731.00304 C2702.75065,1738.66973 2826.30029,1779.47355 2876.08882,1841.59774 C2895.45621,1865.76362 2919.47134,1908.89223 2885.97065,1965.30331 C2876.54619,1981.17296 2781.74862,2111.94536 2606.63984,2143.30422 C2470.33243,2167.71445 2287.01906,2168.42686 2162.02168,2153.67397 C2076.48417,2143.57836 1927.73933,2112.3298 1956.06453,2101.19027 C1984.38972,2090.05074 2298.36338,2125.40564 2521.27253,2101.19027 C2671.46368,2084.8745 2744.41215,2017.24412 2746.97468,2012.092 C2747.93529,2010.16064 2743.49072,1964.97437 2728.9637,1896.91885 C2722.78575,1867.97671 2707.14615,1812.67144 2682.04487,1731.00304 Z" class="nose" opacity="0.879432315"></path>
      <path d="M2121.83015,871.485984 C1885.25043,816.08771 1700.52767,797.493893 1567.66187,815.704536 C1475.69867,828.309051 1343.88054,856.236201 1172.20748,899.485984 C1236.50951,784.606662 1255.31008,690.233769 1236.7033,575.591571 C1215.73754,446.414924 1169.42031,326.617604 1101.70477,214.992136 C1091.20258,197.679821 1079.48707,180.414465 1065.29253,166.15454 C1011.18273,111.795757 944.834946,118.120076 908.104322,187.485984 C807.190534,378.062524 776.640683,526.427327 781.797681,738.581165 C782.636258,773.07914 791.128446,891.440806 807.274243,1093.66616 C807.947078,1100.38202 561.275604,1242.73933 320.329663,1675.09208 C262.459855,1778.93351 202.153377,1988.04343 139.41023,2302.42182 C118.797125,2323.4006 112.094254,2254.15303 98.5220461,2109.34494 C94.9982047,2071.74747 88.6656322,2005.26081 79.5243286,1909.88497 C47.9516334,1956.5645 27.6361753,1982.20935 18.5779543,1986.81953 C-46.8538462,2020.12101 81.746076,1534.26548 79.5243286,1530.74983 C74.0598963,1522.10302 47.6524491,1550.53514 0.301986932,1616.04621 C79.0175221,1300.24992 153.66576,1087.50359 224.2467,977.807217 C430.645956,657.023021 710.130149,512.553492 721.102857,492.812644 C780.871478,385.283742 834.664897,155.266226 892.485425,54.1164775 C920.155646,5.71090376 978.302983,-2.291624 998.672193,0.485984314 C1079.33918,11.4859843 1104.2313,53.0769125 1130.51838,93.9573893 C1182.53672,174.853922 1232.4637,312.522239 1254.23543,351.615104 L1342.53809,351.615104 C1371.46112,278.170563 1389.93632,232.460856 1397.9637,214.485984 C1431.46214,139.476378 1488.97828,64.6108935 1526.80452,64.6108935 C1563.5773,64.6108935 1570.85285,173.671023 1548.63115,391.791282 C1559.48684,415.626487 1586.67898,449.300275 1630.20759,492.812644 C1656.91566,519.510746 1748.64161,562.327818 1865.9637,651.303855 C1915.22276,688.661492 2000.51158,762.055535 2121.83015,871.485984 Z" class="head" fill-rule="nonzero"></path>
    </g>
  </g>
</svg>
